<svg width="15" height="15" viewBox="0 0 15 15" fill="none" xmlns="http://www.w3.org/2000/svg">
<path d="M5.625 15C4.91667 15 4.30556 14.7535 3.79167 14.2604C3.27778 13.7674 2.98611 13.1736 2.91667 12.4792C2.08333 12.3681 1.38889 12 0.833333 11.375C0.277778 10.75 0 10.0139 0 9.16667C0 8.875 0.0381944 8.58681 0.114583 8.30208C0.190972 8.01736 0.305556 7.75 0.458333 7.5C0.305556 7.25 0.190972 6.98611 0.114583 6.70833C0.0381944 6.43056 0 6.13889 0 5.83333C0 4.98611 0.277778 4.25347 0.833333 3.63542C1.38889 3.01736 2.07639 2.65278 2.89583 2.54167V2.54167V2.54167C2.9375 1.83333 3.22222 1.23264 3.75 0.739583C4.27778 0.246528 4.90278 0 5.625 0C5.98611 0 6.32292 0.0694444 6.63542 0.208333C6.94792 0.347222 7.23611 0.534722 7.5 0.770833C7.75 0.534722 8.03472 0.347222 8.35417 0.208333C8.67361 0.0694444 9.01389 0 9.375 0C10.0972 0 10.7187 0.243056 11.2396 0.729167C11.7604 1.21528 12.0417 1.8125 12.0833 2.52083V2.52083V2.52083C12.9028 2.63194 13.5938 3 14.1562 3.625C14.7188 4.25 15 4.98611 15 5.83333C15 6.13889 14.9618 6.43056 14.8854 6.70833C14.809 6.98611 14.6944 7.25 14.5417 7.5C14.6944 7.75 14.809 8.01736 14.8854 8.30208C14.9618 8.58681 15 8.875 15 9.16667C15 10.0278 14.7188 10.7674 14.1562 11.3854C13.5938 12.0035 12.8958 12.3681 12.0625 12.4792C11.9931 13.1736 11.7049 13.7674 11.1979 14.2604C10.691 14.7535 10.0833 15 9.375 15C9.02778 15 8.69097 14.934 8.36458 14.8021C8.03819 14.6701 7.75 14.4861 7.5 14.25C7.23611 14.4861 6.94444 14.6701 6.625 14.8021C6.30556 14.934 5.97222 15 5.625 15V15M8.33333 2.70833V12.2917C8.33333 12.5833 8.43403 12.8299 8.63542 13.0312C8.83681 13.2326 9.08333 13.3333 9.375 13.3333C9.65278 13.3333 9.89236 13.2222 10.0938 13C10.2951 12.7778 10.4028 12.5278 10.4167 12.25C10.125 12.1389 9.85764 11.9896 9.61458 11.8021C9.37153 11.6146 9.15278 11.3889 8.95833 11.125C8.81944 10.9306 8.76736 10.7222 8.80208 10.5C8.83681 10.2778 8.95139 10.0972 9.14583 9.95833C9.34028 9.81944 9.54861 9.76736 9.77083 9.80208C9.99306 9.83681 10.1736 9.95139 10.3125 10.1458C10.4653 10.3681 10.6597 10.5382 10.8958 10.6562C11.1319 10.7743 11.3889 10.8333 11.6667 10.8333C12.125 10.8333 12.5174 10.6701 12.8438 10.3438C13.1701 10.0174 13.3333 9.625 13.3333 9.16667C13.3333 9.09722 13.3299 9.02778 13.3229 8.95833C13.316 8.88889 13.2986 8.81944 13.2708 8.75C13.0347 8.88889 12.7813 8.99306 12.5104 9.0625C12.2396 9.13194 11.9583 9.16667 11.6667 9.16667C11.4306 9.16667 11.2326 9.08681 11.0729 8.92708C10.9132 8.76736 10.8333 8.56944 10.8333 8.33333C10.8333 8.09722 10.9132 7.89931 11.0729 7.73958C11.2326 7.57986 11.4306 7.5 11.6667 7.5C12.125 7.5 12.5174 7.33681 12.8438 7.01042C13.1701 6.68403 13.3333 6.29167 13.3333 5.83333C13.3333 5.375 13.1701 4.98611 12.8438 4.66667C12.5174 4.34722 12.125 4.18056 11.6667 4.16667C11.5139 4.41667 11.316 4.63542 11.0729 4.82292C10.8299 5.01042 10.5625 5.15972 10.2708 5.27083C10.0486 5.35417 9.83333 5.34722 9.625 5.25C9.41667 5.15278 9.27778 4.99306 9.20833 4.77083C9.13889 4.54861 9.14931 4.33333 9.23958 4.125C9.32986 3.91667 9.48611 3.77778 9.70833 3.70833C9.91667 3.63889 10.0868 3.51389 10.2188 3.33333C10.3507 3.15278 10.4167 2.94444 10.4167 2.70833C10.4167 2.41667 10.316 2.17014 10.1146 1.96875C9.91319 1.76736 9.66667 1.66667 9.375 1.66667C9.08333 1.66667 8.83681 1.76736 8.63542 1.96875C8.43403 2.17014 8.33333 2.41667 8.33333 2.70833V2.70833M6.66667 12.2917V2.70833C6.66667 2.41667 6.56597 2.17014 6.36458 1.96875C6.16319 1.76736 5.91667 1.66667 5.625 1.66667C5.33333 1.66667 5.08681 1.76736 4.88542 1.96875C4.68403 2.17014 4.58333 2.41667 4.58333 2.70833C4.58333 2.93056 4.64583 3.13542 4.77083 3.32292C4.89583 3.51042 5.0625 3.63889 5.27083 3.70833C5.49306 3.77778 5.65278 3.91667 5.75 4.125C5.84722 4.33333 5.86111 4.54861 5.79167 4.77083C5.70833 4.99306 5.5625 5.15278 5.35417 5.25C5.14583 5.34722 4.93056 5.35417 4.70833 5.27083C4.41667 5.15972 4.14931 5.01042 3.90625 4.82292C3.66319 4.63542 3.46528 4.41667 3.3125 4.16667C2.86806 4.18056 2.48264 4.35069 2.15625 4.67708C1.82986 5.00347 1.66667 5.38889 1.66667 5.83333C1.66667 6.29167 1.82986 6.68403 2.15625 7.01042C2.48264 7.33681 2.875 7.5 3.33333 7.5C3.56944 7.5 3.76736 7.57986 3.92708 7.73958C4.08681 7.89931 4.16667 8.09722 4.16667 8.33333C4.16667 8.56944 4.08681 8.76736 3.92708 8.92708C3.76736 9.08681 3.56944 9.16667 3.33333 9.16667C3.04167 9.16667 2.76042 9.13194 2.48958 9.0625C2.21875 8.99306 1.96528 8.88889 1.72917 8.75C1.70139 8.81944 1.68403 8.88889 1.67708 8.95833C1.67014 9.02778 1.66667 9.09722 1.66667 9.16667C1.66667 9.625 1.82986 10.0174 2.15625 10.3438C2.48264 10.6701 2.875 10.8333 3.33333 10.8333C3.61111 10.8333 3.86806 10.7743 4.10417 10.6562C4.34028 10.5382 4.53472 10.3681 4.6875 10.1458C4.82639 9.95139 5.00694 9.83681 5.22917 9.80208C5.45139 9.76736 5.65972 9.81944 5.85417 9.95833C6.04861 10.0972 6.16319 10.2778 6.19792 10.5C6.23264 10.7222 6.18056 10.9306 6.04167 11.125C5.84722 11.3889 5.625 11.6181 5.375 11.8125C5.125 12.0069 4.85417 12.1597 4.5625 12.2708C4.57639 12.5486 4.6875 12.7951 4.89583 13.0104C5.10417 13.2257 5.34722 13.3333 5.625 13.3333C5.91667 13.3333 6.16319 13.2326 6.36458 13.0312C6.56597 12.8299 6.66667 12.5833 6.66667 12.2917V12.2917M7.5 7.5V7.5V7.5V7.5V7.5V7.5V7.5V7.5V7.5V7.5V7.5V7.5V7.5V7.5V7.5V7.5V7.5V7.5V7.5V7.5V7.5V7.5V7.5V7.5V7.5V7.5V7.5V7.5V7.5V7.5V7.5V7.5V7.5V7.5V7.5V7.5V7.5V7.5V7.5V7.5V7.5V7.5V7.5V7.5V7.5V7.5V7.5V7.5V7.5V7.5V7.5V7.5V7.5V7.5V7.5V7.5V7.5V7.5V7.5V7.5V7.5V7.5V7.5V7.5V7.5V7.5V7.5V7.5V7.5V7.5V7.5V7.5V7.5V7.5V7.5V7.5V7.5V7.5V7.5V7.5V7.5V7.5V7.5V7.5V7.5V7.5V7.5V7.5V7.5V7.5" fill="#434655"/>
</svg>
